<svg width="294" height="69" viewBox="0 0 294 69" fill="none" xmlns="http://www.w3.org/2000/svg">
<path d="M10.375 10.4149L10.3761 10.4137C16.4357 4.31483 24.854 0.5 34.0968 0.5H259.079C265.335 0.5 271.234 2.23079 276.269 5.25933C286.068 11.1625 292.676 21.9041 292.676 34.1367C292.676 43.38 288.901 51.7589 282.801 57.8585C276.702 63.9581 268.323 67.7334 259.079 67.7334H34.0968C15.6077 67.7334 0.5 52.6257 0.5 34.1367C0.5 24.8934 4.27537 16.5145 10.375 10.4149Z" fill="url(#paint0_radial_405_34)" stroke="url(#paint1_linear_405_34)"/>
<path opacity="0.28" d="M241.352 4.75049C247.141 4.75049 252.571 6.26767 257.243 8.90279C252.451 17.926 241.831 23.9549 231.131 23.6355C222.267 23.356 214.043 19.1638 205.259 18.1656C197.434 17.2872 189.289 19.044 182.621 23.0366C176.353 26.8295 171.522 32.4192 165.692 36.7711C156.949 43.279 145.37 46.8724 134.47 44.8361C123.411 42.76 114.148 35.2539 103.089 33.1778C85.5211 29.9038 68.7922 40.8435 55.0177 51.6635C49.9072 55.6561 44.5571 59.8483 38.9675 63.4416H36.4921C19.4038 63.4416 5.42969 50.2261 5.42969 34.0961C5.42969 26.031 8.90324 18.6846 14.5727 13.3745C20.1624 8.06434 27.908 4.75049 36.4521 4.75049H241.352Z" fill="white"/>
<g filter="url(#filter0_d_405_34)">
<path d="M32.8904 39.4374V33.5866C32.8904 33.1844 32.8336 32.8389 32.7199 32.5503C32.6062 32.2617 32.4269 32.0387 32.182 31.8813C31.9372 31.7151 31.6092 31.632 31.1982 31.632C30.8658 31.632 30.5816 31.6889 30.3455 31.8026C30.1094 31.9162 29.9301 32.0868 29.8076 32.3142C29.6852 32.5416 29.624 32.8302 29.624 33.18H25.2031C25.2031 32.5241 25.3474 31.9162 25.636 31.3565C25.9333 30.7881 26.3531 30.2939 26.8954 29.8742C27.4463 29.4544 28.1022 29.1308 28.8631 28.9034C29.6327 28.6673 30.4898 28.5492 31.4343 28.5492C32.5625 28.5492 33.5682 28.7372 34.4515 29.1133C35.3436 29.4894 36.0476 30.0534 36.5636 30.8056C37.0796 31.5489 37.3376 32.4847 37.3376 33.6129V39.4243C37.3376 40.3513 37.39 41.0554 37.495 41.5364C37.5999 42.0086 37.7486 42.424 37.941 42.7826V43.0056H33.507C33.2971 42.5683 33.1397 42.0349 33.0347 41.4052C32.9385 40.7668 32.8904 40.1108 32.8904 39.4374ZM33.4283 34.3344L33.4545 36.6957H31.4999C31.0889 36.6957 30.739 36.7525 30.4504 36.8662C30.1706 36.9799 29.9432 37.1373 29.7683 37.3385C29.6021 37.5309 29.4797 37.7495 29.401 37.9944C29.331 38.2393 29.296 38.4973 29.296 38.7684C29.296 39.0308 29.3572 39.2669 29.4797 39.4768C29.6109 39.6779 29.7858 39.8354 30.0044 39.949C30.223 40.0627 30.4679 40.1196 30.739 40.1196C31.2288 40.1196 31.6442 40.0278 31.9853 39.8441C32.3351 39.6517 32.6018 39.4199 32.7855 39.1488C32.9691 38.8777 33.061 38.6241 33.061 38.388L34.0317 40.1983C33.8568 40.5481 33.6557 40.9023 33.4283 41.2609C33.2097 41.6194 32.9342 41.9518 32.6018 42.2579C32.2782 42.5552 31.8803 42.8001 31.4081 42.9925C30.9358 43.1762 30.363 43.268 29.6896 43.268C28.815 43.268 28.0104 43.0887 27.2758 42.7301C26.5499 42.3716 25.9683 41.8731 25.5311 41.2346C25.0938 40.5875 24.8751 39.8441 24.8751 39.0045C24.8751 38.2699 25.0063 37.614 25.2687 37.0368C25.5398 36.4596 25.9465 35.9698 26.4887 35.5675C27.0309 35.1652 27.7218 34.8591 28.5614 34.6492C29.401 34.4393 30.3892 34.3344 31.5261 34.3344H33.4283ZM47.9503 39.7523V22.8558H52.3974V43.0056H48.4094L47.9503 39.7523ZM39.2397 36.0791V35.8036C39.2397 34.7279 39.3578 33.7484 39.5939 32.8651C39.83 31.9731 40.1799 31.2079 40.6434 30.5694C41.1069 29.9223 41.6841 29.4238 42.375 29.0739C43.0659 28.7241 43.8617 28.5492 44.7625 28.5492C45.5671 28.5492 46.2711 28.7372 46.8746 29.1133C47.478 29.4806 47.994 29.9966 48.4226 30.6613C48.8511 31.3259 49.2009 32.1043 49.472 32.9963C49.7431 33.8796 49.9487 34.8329 50.0886 35.8561V36.1841C49.9487 37.1461 49.7431 38.0556 49.472 38.9127C49.2009 39.761 48.8511 40.5131 48.4226 41.169C47.994 41.825 47.4737 42.341 46.8615 42.717C46.258 43.0843 45.5496 43.268 44.7363 43.268C43.8355 43.268 43.0397 43.0887 42.3488 42.7301C41.6666 42.3716 41.0938 41.8687 40.6303 41.2215C40.1755 40.5743 39.83 39.8135 39.5939 38.9389C39.3578 38.0644 39.2397 37.1111 39.2397 36.0791ZM43.6606 35.8036V36.0791C43.6606 36.6126 43.6956 37.1067 43.7655 37.5615C43.8355 38.0163 43.9536 38.4186 44.1197 38.7684C44.2946 39.1095 44.522 39.3762 44.8019 39.5686C45.0905 39.761 45.4447 39.8572 45.8645 39.8572C46.4329 39.8572 46.9008 39.7217 47.2681 39.4505C47.6442 39.1794 47.9197 38.7946 48.0946 38.2961C48.2783 37.7976 48.357 37.2117 48.3307 36.5383V35.5019C48.3482 34.9247 48.3089 34.4175 48.2127 33.9802C48.1165 33.5342 47.9634 33.1625 47.7535 32.8651C47.5524 32.5678 47.2944 32.3448 46.9795 32.1961C46.6734 32.0387 46.3105 31.96 45.8907 31.96C45.4797 31.96 45.1298 32.0562 44.8412 32.2486C44.5614 32.441 44.334 32.7121 44.1591 33.0619C43.9842 33.403 43.8574 33.8097 43.7787 34.2819C43.7 34.7454 43.6606 35.2527 43.6606 35.8036ZM59.3632 31.8157V43.0056H54.9424V28.8116H59.0878L59.3632 31.8157ZM58.8254 35.4232L57.8153 35.4495C57.8153 34.4525 57.9333 33.5342 58.1695 32.6946C58.4056 31.855 58.7554 31.1248 59.2189 30.5038C59.6825 29.8829 60.2509 29.4019 60.9243 29.0608C61.6065 28.7197 62.3936 28.5492 63.2856 28.5492C63.9066 28.5492 64.4707 28.6454 64.9779 28.8378C65.4851 29.0215 65.9224 29.3144 66.2897 29.7167C66.657 30.1103 66.9369 30.6263 67.1293 31.2647C67.3305 31.8944 67.431 32.6509 67.431 33.5342V43.0056H63.0101V34.0983C63.0101 33.4948 62.9402 33.0401 62.8003 32.734C62.6691 32.4279 62.4767 32.2223 62.223 32.1174C61.9694 32.0124 61.659 31.96 61.2916 31.96C60.9068 31.96 60.5614 32.0474 60.2553 32.2223C59.9492 32.3973 59.6868 32.6421 59.4682 32.957C59.2583 33.2631 59.0965 33.626 58.9828 34.0458C58.8779 34.4656 58.8254 34.9247 58.8254 35.4232ZM66.9325 35.4232L65.6994 35.4495C65.6994 34.4525 65.8087 33.5342 66.0274 32.6946C66.2547 31.855 66.5915 31.1248 67.0375 30.5038C67.4922 29.8829 68.0563 29.4019 68.7297 29.0608C69.4031 28.7197 70.1859 28.5492 71.0779 28.5492C71.7251 28.5492 72.3198 28.6454 72.862 28.8378C73.4042 29.0302 73.8721 29.3407 74.2657 29.7692C74.6592 30.1977 74.9653 30.7662 75.184 31.4746C75.4026 32.1742 75.5119 33.0401 75.5119 34.072V43.0056H71.0779V34.072C71.0779 33.4861 71.008 33.0444 70.868 32.7471C70.7368 32.441 70.5444 32.2355 70.2908 32.1305C70.0372 32.0168 69.7355 31.96 69.3857 31.96C68.9659 31.96 68.6029 32.0474 68.2968 32.2223C67.9907 32.3973 67.7327 32.6421 67.5229 32.957C67.3217 33.2631 67.173 33.626 67.0768 34.0458C66.9806 34.4656 66.9325 34.9247 66.9325 35.4232ZM82.7139 28.8116V43.0056H78.2799V28.8116H82.7139ZM78.0175 25.1516C78.0175 24.5219 78.2449 24.0059 78.6997 23.6036C79.1544 23.2013 79.7448 23.0001 80.4707 23.0001C81.1965 23.0001 81.7869 23.2013 82.2416 23.6036C82.6964 24.0059 82.9238 24.5219 82.9238 25.1516C82.9238 25.7812 82.6964 26.2972 82.2416 26.6995C81.7869 27.1018 81.1965 27.303 80.4707 27.303C79.7448 27.303 79.1544 27.1018 78.6997 26.6995C78.2449 26.2972 78.0175 25.7812 78.0175 25.1516ZM89.7847 31.8419V43.0056H85.3638V28.8116H89.5092L89.7847 31.8419ZM89.2599 35.4232L88.2236 35.4495C88.2236 34.365 88.3548 33.3986 88.6171 32.5503C88.8795 31.6932 89.2512 30.9674 89.7322 30.3727C90.2132 29.778 90.786 29.3276 91.4507 29.0215C92.1241 28.7066 92.8719 28.5492 93.6939 28.5492C94.3499 28.5492 94.9489 28.6454 95.4912 28.8378C96.0421 29.0302 96.5144 29.3407 96.9079 29.7692C97.3102 30.1977 97.6163 30.7662 97.8262 31.4746C98.0449 32.1742 98.1542 33.0401 98.1542 34.072V43.0056H93.7071V34.0589C93.7071 33.4904 93.6283 33.0575 93.4709 32.7602C93.3135 32.4541 93.0861 32.2442 92.7888 32.1305C92.4914 32.0168 92.1285 31.96 91.7 31.96C91.2452 31.96 90.8604 32.0474 90.5455 32.2223C90.2307 32.3973 89.9771 32.6421 89.7847 32.957C89.601 33.2631 89.4655 33.626 89.378 34.0458C89.2993 34.4656 89.2599 34.9247 89.2599 35.4232ZM122.384 35.7905C122.349 36.7176 122.213 37.6271 121.977 38.5191C121.741 39.4112 121.382 40.2158 120.901 40.9329C120.429 41.6501 119.826 42.2229 119.091 42.6514C118.365 43.0712 117.491 43.2811 116.467 43.2811C115.916 43.2811 115.409 43.1849 114.946 42.9925C114.491 42.8001 114.097 42.5246 113.765 42.166C113.441 41.8075 113.192 41.3746 113.017 40.8673C112.851 40.3601 112.785 39.7916 112.82 39.1619L113.49 31.4615H116.441L115.785 39.1619C115.741 39.5293 115.746 39.831 115.798 40.0671C115.86 40.3032 115.951 40.4869 116.074 40.6181C116.205 40.7493 116.354 40.8455 116.52 40.9067C116.695 40.9592 116.87 40.9854 117.045 40.9854C117.421 40.9854 117.766 40.8586 118.081 40.605C118.405 40.3513 118.684 39.9971 118.921 39.5424C119.165 39.0789 119.358 38.541 119.498 37.9288C119.638 37.3079 119.716 36.6388 119.734 35.9217C119.786 34.8285 119.729 33.814 119.563 32.8783C119.397 31.9337 119.113 31.0854 118.711 30.3333C118.317 29.5812 117.805 28.9428 117.176 28.418C116.546 27.8845 115.798 27.4779 114.933 27.198C114.067 26.9094 113.074 26.7651 111.955 26.7651C110.896 26.7651 109.921 26.9313 109.029 27.2636C108.137 27.5959 107.337 28.0726 106.629 28.6935C105.929 29.3057 105.326 30.036 104.818 30.8843C104.32 31.7326 103.926 32.6727 103.638 33.7047C103.349 34.7367 103.178 35.8343 103.126 36.9974C103.065 38.2568 103.13 39.3937 103.323 40.4082C103.524 41.4139 103.843 42.2929 104.28 43.045C104.718 43.8058 105.264 44.4355 105.92 44.934C106.576 45.4413 107.337 45.8217 108.203 46.0753C109.077 46.3289 110.044 46.4557 111.102 46.4557C111.863 46.4557 112.637 46.3727 113.424 46.2065C114.22 46.0403 114.893 45.8392 115.444 45.603L115.943 47.7807C115.33 48.1742 114.565 48.4672 113.647 48.6596C112.729 48.852 111.863 48.9482 111.05 48.9482C109.633 48.9482 108.343 48.7864 107.18 48.4628C106.016 48.1393 104.989 47.6539 104.097 47.0067C103.213 46.3595 102.474 45.5549 101.88 44.5929C101.294 43.6397 100.861 42.529 100.581 41.2609C100.301 39.9928 100.192 38.5716 100.253 36.9974C100.314 35.5631 100.537 34.2163 100.922 32.957C101.307 31.6889 101.836 30.5388 102.509 29.5068C103.192 28.4749 104.005 27.5872 104.949 26.8438C105.894 26.0917 106.957 25.5145 108.137 25.1122C109.327 24.7099 110.617 24.5088 112.007 24.5088C113.389 24.5088 114.64 24.6837 115.759 25.0335C116.887 25.3833 117.875 25.8906 118.724 26.5552C119.572 27.2111 120.276 28.0026 120.836 28.9296C121.404 29.8567 121.815 30.8974 122.069 32.0518C122.331 33.2062 122.436 34.4525 122.384 35.7905ZM109.252 37.286C109.209 37.8457 109.209 38.3442 109.252 38.7815C109.305 39.21 109.397 39.5686 109.528 39.8572C109.668 40.1458 109.847 40.3645 110.066 40.5131C110.293 40.6618 110.56 40.7361 110.866 40.7361C111.015 40.7361 111.185 40.7012 111.377 40.6312C111.57 40.5525 111.767 40.4169 111.968 40.2245C112.169 40.0234 112.366 39.7435 112.558 39.385C112.751 39.0176 112.917 38.541 113.057 37.9551L114.277 39.4505C114.075 40.0802 113.831 40.6312 113.542 41.1035C113.253 41.5757 112.921 41.9693 112.545 42.2841C112.178 42.5989 111.767 42.8351 111.312 42.9925C110.866 43.1499 110.376 43.2286 109.843 43.2286C109.204 43.2286 108.627 43.0887 108.111 42.8088C107.604 42.529 107.175 42.1311 106.825 41.6151C106.476 41.0903 106.222 40.465 106.065 39.7391C105.916 39.0045 105.885 38.1868 105.973 37.286C106.078 36.4027 106.257 35.585 106.511 34.8329C106.773 34.0808 107.097 33.4117 107.481 32.8258C107.866 32.2311 108.308 31.7238 108.806 31.3041C109.305 30.8843 109.847 30.5651 110.433 30.3464C111.028 30.1278 111.653 30.0185 112.309 30.0185C113.35 30.0185 114.163 30.1671 114.749 30.4645C115.344 30.7531 115.908 31.0854 116.441 31.4615L114.998 33.5079C114.744 33.2806 114.412 33.0619 114.001 32.852C113.599 32.6334 113.118 32.5241 112.558 32.5241C112.033 32.5241 111.583 32.629 111.207 32.8389C110.831 33.0401 110.512 33.3461 110.249 33.7572C109.987 34.1595 109.773 34.658 109.606 35.2527C109.449 35.8386 109.331 36.5164 109.252 37.286ZM137.877 23.9053V26.2666L130.74 43.0056H126.07L133.219 27.3161H124.102V23.9053H137.877ZM153.448 37.7452C153.448 38.9608 153.159 39.9797 152.582 40.8017C152.014 41.6238 151.227 42.2404 150.221 42.6514C149.224 43.0625 148.087 43.268 146.81 43.268C145.542 43.268 144.401 43.0625 143.386 42.6514C142.38 42.2404 141.585 41.6238 140.999 40.8017C140.413 39.9797 140.12 38.9608 140.12 37.7452C140.12 36.9143 140.286 36.171 140.618 35.515C140.959 34.8504 141.432 34.2863 142.035 33.8228C142.638 33.3593 143.342 33.0051 144.147 32.7602C144.96 32.5153 145.839 32.3929 146.784 32.3929C148.061 32.3929 149.202 32.6115 150.208 33.0488C151.213 33.4773 152.005 34.0895 152.582 34.8854C153.159 35.6812 153.448 36.6345 153.448 37.7452ZM149.001 37.391C149.001 36.8662 148.909 36.4246 148.725 36.066C148.542 35.6987 148.284 35.4188 147.951 35.2264C147.619 35.034 147.23 34.9378 146.784 34.9378C146.347 34.9378 145.957 35.034 145.616 35.2264C145.284 35.4188 145.022 35.6987 144.829 36.066C144.646 36.4246 144.554 36.8662 144.554 37.391C144.554 37.8982 144.65 38.3399 144.842 38.7159C145.035 39.0832 145.297 39.3675 145.629 39.5686C145.971 39.761 146.364 39.8572 146.81 39.8572C147.256 39.8572 147.641 39.761 147.965 39.5686C148.297 39.3675 148.55 39.0832 148.725 38.7159C148.909 38.3399 149.001 37.8982 149.001 37.391ZM153.054 29.0083C153.054 30.0053 152.788 30.8799 152.254 31.632C151.729 32.3754 150.995 32.957 150.05 33.3768C149.115 33.7878 148.034 33.9933 146.81 33.9933C145.594 33.9933 144.51 33.7878 143.557 33.3768C142.612 32.957 141.869 32.3754 141.327 31.632C140.793 30.8799 140.526 30.0053 140.526 29.0083C140.526 27.8364 140.793 26.8526 141.327 26.0567C141.869 25.2609 142.612 24.6574 143.557 24.2464C144.501 23.8353 145.577 23.6298 146.784 23.6298C148.008 23.6298 149.093 23.8353 150.037 24.2464C150.982 24.6574 151.721 25.2609 152.254 26.0567C152.788 26.8526 153.054 27.8364 153.054 29.0083ZM148.634 29.2445C148.634 28.7897 148.564 28.4005 148.424 28.0769C148.284 27.7446 148.078 27.491 147.807 27.3161C147.536 27.1324 147.195 27.0406 146.784 27.0406C146.39 27.0406 146.058 27.1281 145.787 27.303C145.516 27.4779 145.31 27.7315 145.17 28.0638C145.03 28.3874 144.96 28.781 144.96 29.2445C144.96 29.6992 145.03 30.0972 145.17 30.4382C145.31 30.7793 145.516 31.0461 145.787 31.2385C146.067 31.4309 146.408 31.5271 146.81 31.5271C147.221 31.5271 147.558 31.4309 147.82 31.2385C148.091 31.0461 148.292 30.7793 148.424 30.4382C148.564 30.0972 148.634 29.6992 148.634 29.2445ZM158.564 39.726H158.826C159.701 39.726 160.488 39.6298 161.188 39.4374C161.887 39.245 162.487 38.9477 162.985 38.5454C163.483 38.1343 163.864 37.6052 164.126 36.9581C164.397 36.3021 164.533 35.5107 164.533 34.5836V30.635C164.533 30.0228 164.48 29.4937 164.376 29.0477C164.271 28.5929 164.118 28.2169 163.916 27.9195C163.715 27.6222 163.475 27.4035 163.195 27.2636C162.915 27.1149 162.6 27.0406 162.25 27.0406C161.901 27.0406 161.59 27.1412 161.319 27.3423C161.057 27.5347 160.829 27.7971 160.637 28.1294C160.453 28.453 160.313 28.8203 160.217 29.2314C160.121 29.6337 160.073 30.0403 160.073 30.4514C160.073 30.9149 160.121 31.3478 160.217 31.7501C160.322 32.1436 160.471 32.4891 160.663 32.7864C160.864 33.075 161.113 33.3024 161.411 33.4686C161.717 33.6347 162.071 33.7178 162.473 33.7178C162.876 33.7178 163.221 33.6479 163.51 33.5079C163.807 33.3593 164.052 33.1669 164.244 32.9307C164.437 32.6859 164.577 32.4235 164.664 32.1436C164.76 31.8638 164.804 31.5883 164.795 31.3172L166.081 32.3273C166.081 32.887 165.954 33.438 165.7 33.9802C165.447 34.5224 165.097 35.0165 164.651 35.4626C164.205 35.8998 163.689 36.2497 163.103 36.512C162.526 36.7744 161.914 36.9056 161.266 36.9056C160.401 36.9056 159.618 36.7525 158.918 36.4464C158.227 36.1404 157.637 35.7031 157.147 35.1346C156.658 34.5662 156.282 33.8884 156.019 33.1013C155.766 32.3054 155.639 31.4221 155.639 30.4514C155.639 29.5156 155.801 28.6367 156.124 27.8146C156.448 26.9925 156.907 26.271 157.502 25.6501C158.096 25.0204 158.8 24.5262 159.614 24.1677C160.427 23.8091 161.319 23.6298 162.29 23.6298C163.208 23.6298 164.069 23.8047 164.874 24.1546C165.679 24.4956 166.387 24.9985 166.999 25.6632C167.611 26.3278 168.092 27.1455 168.442 28.1163C168.792 29.0871 168.967 30.1977 168.967 31.4484V32.9701C168.967 34.3256 168.801 35.55 168.468 36.6432C168.136 37.7364 167.664 38.6984 167.052 39.5293C166.439 40.3513 165.714 41.0422 164.874 41.602C164.043 42.1529 163.121 42.5683 162.106 42.8482C161.1 43.1281 160.033 43.268 158.905 43.268H158.564V39.726ZM171.459 22.8558H175.88V39.5161L175.421 43.0056H171.459V22.8558ZM184.591 35.7512V36.0267C184.591 37.1024 184.482 38.0819 184.263 38.9652C184.044 39.8485 183.708 40.6137 183.253 41.2609C182.798 41.8993 182.225 42.3934 181.534 42.7432C180.843 43.0931 180.026 43.268 179.081 43.268C178.224 43.268 177.49 43.0843 176.877 42.717C176.265 42.341 175.754 41.825 175.342 41.169C174.931 40.5044 174.599 39.7391 174.345 38.8733C174.092 37.9988 173.891 37.063 173.742 36.066V35.7381C173.891 34.7498 174.092 33.8228 174.345 32.957C174.599 32.0824 174.931 31.3172 175.342 30.6613C175.754 29.9966 176.261 29.4806 176.864 29.1133C177.476 28.7372 178.207 28.5492 179.055 28.5492C180.008 28.5492 180.83 28.7285 181.521 29.0871C182.221 29.4456 182.798 29.9485 183.253 30.5957C183.708 31.2428 184.044 32.0037 184.263 32.8783C184.482 33.7528 184.591 34.7105 184.591 35.7512ZM180.17 36.0267V35.7512C180.17 35.2352 180.139 34.7498 180.078 34.295C180.017 33.8403 179.908 33.438 179.75 33.0882C179.593 32.7383 179.37 32.4628 179.081 32.2617C178.793 32.0605 178.417 31.96 177.953 31.96C177.481 31.96 177.083 32.0387 176.759 32.1961C176.444 32.3535 176.191 32.5809 175.998 32.8783C175.815 33.1669 175.684 33.5254 175.605 33.954C175.526 34.3737 175.491 34.8504 175.5 35.3839V36.4202C175.482 37.1461 175.548 37.767 175.697 38.283C175.845 38.799 176.103 39.1926 176.471 39.4637C176.838 39.7348 177.341 39.8703 177.979 39.8703C178.452 39.8703 178.832 39.7785 179.121 39.5948C179.418 39.4112 179.641 39.1488 179.79 38.8077C179.938 38.4667 180.039 38.06 180.091 37.5877C180.144 37.1155 180.17 36.5951 180.17 36.0267ZM193.433 43.268C192.278 43.268 191.246 43.0887 190.337 42.7301C189.427 42.3628 188.658 41.8599 188.028 41.2215C187.407 40.5831 186.93 39.8485 186.598 39.0176C186.274 38.1868 186.113 37.3079 186.113 36.3809V35.8824C186.113 34.8416 186.257 33.8796 186.546 32.9963C186.834 32.1043 187.263 31.3259 187.831 30.6613C188.4 29.9966 189.112 29.4806 189.969 29.1133C190.826 28.7372 191.823 28.5492 192.96 28.5492C193.966 28.5492 194.867 28.711 195.663 29.0346C196.459 29.3582 197.132 29.8217 197.683 30.4251C198.243 31.0286 198.667 31.7588 198.955 32.6159C199.253 33.473 199.402 34.435 199.402 35.5019V37.2991H187.805V34.5312H195.086V34.1901C195.094 33.7178 195.011 33.3155 194.836 32.9832C194.67 32.6509 194.425 32.3973 194.102 32.2223C193.778 32.0474 193.385 31.96 192.921 31.96C192.44 31.96 192.042 32.0649 191.727 32.2748C191.421 32.4847 191.181 32.7733 191.006 33.1406C190.84 33.4992 190.722 33.9146 190.652 34.3869C190.582 34.8591 190.547 35.3576 190.547 35.8824V36.3809C190.547 36.9056 190.617 37.3822 190.757 37.8108C190.905 38.2393 191.115 38.6066 191.386 38.9127C191.666 39.21 191.998 39.4418 192.383 39.608C192.777 39.7741 193.223 39.8572 193.721 39.8572C194.325 39.8572 194.919 39.7435 195.505 39.5161C196.091 39.2888 196.594 38.9127 197.014 38.388L199.021 40.7755C198.732 41.1865 198.321 41.5845 197.788 41.9693C197.263 42.3541 196.634 42.6689 195.899 42.9138C195.164 43.1499 194.342 43.268 193.433 43.268ZM208.676 28.8116V31.8813H200.123V28.8116H208.676ZM201.92 25.2827H206.341V38.3748C206.341 38.7509 206.385 39.0439 206.472 39.2538C206.56 39.4549 206.708 39.5992 206.918 39.6867C207.137 39.7654 207.426 39.8047 207.784 39.8047C208.038 39.8047 208.248 39.8004 208.414 39.7916C208.58 39.7741 208.737 39.7523 208.886 39.726V42.8876C208.51 43.01 208.116 43.1018 207.705 43.163C207.294 43.233 206.857 43.268 206.394 43.268C205.449 43.268 204.64 43.1193 203.967 42.822C203.302 42.5246 202.795 42.0567 202.445 41.4183C202.095 40.7799 201.92 39.949 201.92 38.9258V25.2827ZM210.723 40.9329C210.723 40.3032 210.95 39.7785 211.405 39.3587C211.86 38.9302 212.446 38.7159 213.163 38.7159C213.889 38.7159 214.474 38.9302 214.921 39.3587C215.375 39.7785 215.603 40.3032 215.603 40.9329C215.603 41.5626 215.375 42.0917 214.921 42.5202C214.474 42.94 213.889 43.1499 213.163 43.1499C212.446 43.1499 211.86 42.94 211.405 42.5202C210.95 42.0917 210.723 41.5626 210.723 40.9329ZM224.562 39.8572C224.974 39.8572 225.323 39.7829 225.612 39.6342C225.909 39.4768 226.132 39.2581 226.281 38.9783C226.438 38.6897 226.513 38.3442 226.504 37.9419H230.663C230.671 39.0089 230.409 39.9447 229.875 40.7493C229.351 41.5451 228.634 42.166 227.724 42.6121C226.823 43.0493 225.804 43.268 224.667 43.268C223.557 43.268 222.586 43.0887 221.755 42.7301C220.924 42.3628 220.229 41.8556 219.669 41.2084C219.118 40.5525 218.703 39.7872 218.423 38.9127C218.152 38.0381 218.016 37.0892 218.016 36.066V35.7643C218.016 34.7411 218.152 33.7922 218.423 32.9176C218.703 32.0343 219.118 31.2691 219.669 30.6219C220.229 29.966 220.92 29.4587 221.742 29.1002C222.573 28.7329 223.539 28.5492 224.641 28.5492C225.822 28.5492 226.863 28.7722 227.763 29.2182C228.673 29.6643 229.386 30.3114 229.902 31.1598C230.418 32.0081 230.671 33.0357 230.663 34.2426H226.504C226.513 33.814 226.447 33.4292 226.307 33.0882C226.167 32.7471 225.949 32.476 225.651 32.2748C225.363 32.0649 224.991 31.96 224.536 31.96C224.081 31.96 223.714 32.0605 223.434 32.2617C223.154 32.4628 222.94 32.7427 222.792 33.1013C222.652 33.4511 222.555 33.8534 222.503 34.3082C222.459 34.7629 222.437 35.2483 222.437 35.7643V36.066C222.437 36.5907 222.459 37.0849 222.503 37.5484C222.555 38.0032 222.656 38.4055 222.805 38.7553C222.953 39.0964 223.168 39.3675 223.447 39.5686C223.727 39.761 224.099 39.8572 224.562 39.8572ZM232.001 36.0529V35.7774C232.001 34.7367 232.149 33.7791 232.447 32.9045C232.744 32.0212 233.181 31.256 233.758 30.6088C234.336 29.9616 235.048 29.4587 235.897 29.1002C236.745 28.7329 237.725 28.5492 238.835 28.5492C239.955 28.5492 240.939 28.7329 241.787 29.1002C242.644 29.4587 243.361 29.9616 243.938 30.6088C244.515 31.256 244.953 32.0212 245.25 32.9045C245.547 33.7791 245.696 34.7367 245.696 35.7774V36.0529C245.696 37.0849 245.547 38.0425 245.25 38.9258C244.953 39.8004 244.515 40.5656 243.938 41.2215C243.361 41.8687 242.648 42.3716 241.8 42.7301C240.952 43.0887 239.972 43.268 238.861 43.268C237.751 43.268 236.767 43.0887 235.91 42.7301C235.053 42.3716 234.336 41.8687 233.758 41.2215C233.181 40.5656 232.744 39.8004 232.447 38.9258C232.149 38.0425 232.001 37.0849 232.001 36.0529ZM236.421 35.7774V36.0529C236.421 36.5864 236.461 37.0849 236.54 37.5484C236.618 38.0119 236.749 38.4186 236.933 38.7684C237.117 39.1095 237.366 39.3762 237.681 39.5686C237.996 39.761 238.389 39.8572 238.861 39.8572C239.325 39.8572 239.71 39.761 240.016 39.5686C240.331 39.3762 240.58 39.1095 240.764 38.7684C240.947 38.4186 241.078 38.0119 241.157 37.5484C241.236 37.0849 241.275 36.5864 241.275 36.0529V35.7774C241.275 35.2614 241.236 34.776 241.157 34.3213C241.078 33.8578 240.947 33.4511 240.764 33.1013C240.58 32.7427 240.331 32.4628 240.016 32.2617C239.701 32.0605 239.307 31.96 238.835 31.96C238.372 31.96 237.983 32.0605 237.668 32.2617C237.362 32.4628 237.117 32.7427 236.933 33.1013C236.749 33.4511 236.618 33.8578 236.54 34.3213C236.461 34.776 236.421 35.2614 236.421 35.7774ZM252.124 31.8157V43.0056H247.703V28.8116H251.849L252.124 31.8157ZM251.586 35.4232L250.576 35.4495C250.576 34.4525 250.694 33.5342 250.93 32.6946C251.166 31.855 251.516 31.1248 251.98 30.5038C252.443 29.8829 253.012 29.4019 253.685 29.0608C254.367 28.7197 255.154 28.5492 256.046 28.5492C256.667 28.5492 257.232 28.6454 257.739 28.8378C258.246 29.0215 258.683 29.3144 259.051 29.7167C259.418 30.1103 259.698 30.6263 259.89 31.2647C260.091 31.8944 260.192 32.6509 260.192 33.5342V43.0056H255.771V34.0983C255.771 33.4948 255.701 33.0401 255.561 32.734C255.43 32.4279 255.238 32.2223 254.984 32.1174C254.73 32.0124 254.42 31.96 254.053 31.96C253.668 31.96 253.322 32.0474 253.016 32.2223C252.71 32.3973 252.448 32.6421 252.229 32.957C252.019 33.2631 251.857 33.626 251.744 34.0458C251.639 34.4656 251.586 34.9247 251.586 35.4232ZM259.693 35.4232L258.46 35.4495C258.46 34.4525 258.57 33.5342 258.788 32.6946C259.016 31.855 259.352 31.1248 259.798 30.5038C260.253 29.8829 260.817 29.4019 261.491 29.0608C262.164 28.7197 262.947 28.5492 263.839 28.5492C264.486 28.5492 265.081 28.6454 265.623 28.8378C266.165 29.0302 266.633 29.3407 267.027 29.7692C267.42 30.1977 267.726 30.7662 267.945 31.4746C268.163 32.1742 268.273 33.0401 268.273 34.072V43.0056H263.839V34.072C263.839 33.4861 263.769 33.0444 263.629 32.7471C263.498 32.441 263.305 32.2355 263.052 32.1305C262.798 32.0168 262.496 31.96 262.147 31.96C261.727 31.96 261.364 32.0474 261.058 32.2223C260.752 32.3973 260.494 32.6421 260.284 32.957C260.083 33.2631 259.934 33.626 259.838 34.0458C259.741 34.4656 259.693 34.9247 259.693 35.4232Z" fill="white"/>
</g>
<defs>
<filter id="filter0_d_405_34" x="23.5211" y="22.179" width="246.105" height="28.8" filterUnits="userSpaceOnUse" color-interpolation-filters="sRGB">
<feFlood flood-opacity="0" result="BackgroundImageFix"/>
<feColorMatrix in="SourceAlpha" type="matrix" values="0 0 0 0 0 0 0 0 0 0 0 0 0 0 0 0 0 0 127 0" result="hardAlpha"/>
<feOffset dy="0.676934"/>
<feGaussianBlur stdDeviation="0.676934"/>
<feComposite in2="hardAlpha" operator="out"/>
<feColorMatrix type="matrix" values="0 0 0 0 0 0 0 0 0 0 0 0 0 0 0 0 0 0 0.5 0"/>
<feBlend mode="normal" in2="BackgroundImageFix" result="effect1_dropShadow_405_34"/>
<feBlend mode="normal" in="SourceGraphic" in2="effect1_dropShadow_405_34" result="shape"/>
</filter>
<radialGradient id="paint0_radial_405_34" cx="0" cy="0" r="1" gradientUnits="userSpaceOnUse" gradientTransform="translate(146.579 34.1252) scale(150.739 35.092)">
<stop stop-color="#666666"/>
<stop offset="1" stop-color="#1A1A1A"/>
</radialGradient>
<linearGradient id="paint1_linear_405_34" x1="146.527" y1="-0.373282" x2="146.527" y2="74.6792" gradientUnits="userSpaceOnUse">
<stop stop-color="#FF9A17"/>
<stop offset="0.1692" stop-color="#FF921B"/>
<stop offset="0.4357" stop-color="#FF7B27"/>
<stop offset="0.764" stop-color="#FF5739"/>
<stop offset="1" stop-color="#FF3849"/>
</linearGradient>
</defs>
</svg>
